<svg width="68" height="43" viewBox="0 0 68 43" fill="none" xmlns="http://www.w3.org/2000/svg">
  <path d="M23.1236 43C27.0932 43 30.8314 42.0731 34.089 40.4346C37.3288 42.0235 40.9958 42.9338 44.912 42.9338C57.6754 42.9338 68 33.3341 68 21.4669C68 9.61624 57.6754 0 44.912 0C40.978 0 37.2754 0.910316 34.0356 2.53233C30.7958 0.910316 27.0754 0 23.1236 0C10.3602 0 0 9.63279 0 21.5C0 33.3838 10.3602 43 23.1236 43ZM38.1298 2.28406L38.7707 3.85643L41.2984 3.22748L41.0136 1.60547C41.8859 1.45651 42.7937 1.3572 43.7016 1.3241L43.8796 2.97921L46.4963 2.96266L46.6565 1.3572C47.5644 1.4234 48.4544 1.53926 49.3267 1.72132L49.0419 3.34334L51.5696 3.97229L52.1749 2.46613C53.0115 2.7475 53.8482 3.07852 54.6492 3.44265L53.9372 4.93226L56.1979 6.12394L57.1948 4.8495C57.9246 5.32948 58.6366 5.84257 59.3131 6.38876L58.2272 7.64665L60.0785 9.35142L61.378 8.35835C61.9654 9.00385 62.4995 9.6659 62.9979 10.361L61.6094 11.2879L62.9267 13.3899L64.4576 12.7444C64.8314 13.4892 65.1874 14.2671 65.4722 15.0616L63.888 15.6409L64.5822 17.9911L66.2199 17.7263C66.3801 18.5373 66.5047 19.3483 66.5581 20.1925L64.8848 20.3745L64.9026 22.8075L66.5581 22.9565C66.5047 23.751 66.3979 24.5289 66.2377 25.3068L64.5466 25.0751L63.9236 27.4419L65.4901 27.9715C65.2052 28.766 64.867 29.5439 64.4754 30.2887L62.9089 29.6597L61.645 31.7783L63.0335 32.6721C62.5351 33.3672 62.001 34.0293 61.4136 34.6582L60.0607 33.6651L58.245 35.403L59.3309 36.6112C58.6545 37.1574 57.9602 37.6871 57.2304 38.167L56.1801 36.8761L53.9372 38.1339L54.667 39.5739C53.866 39.9546 53.0471 40.2856 52.2105 40.5504L51.534 39.0443L49.0241 39.7394L49.3267 41.3118C48.4544 41.4938 47.5644 41.6097 46.6743 41.6759L46.4429 40.0373L43.8262 40.1035L43.6838 41.7256C42.7759 41.6759 41.8859 41.5766 41.0136 41.4442L41.2628 39.7725L38.7173 39.2098L38.1298 40.7656C37.1864 40.4842 36.2785 40.1366 35.4241 39.756C37.133 38.7463 38.6995 37.5381 40.088 36.1644C41.7079 36.6443 43.399 36.8926 45.1257 36.8926C49.1487 36.8926 53.1005 35.4692 56.0911 33.0362H61.4314L59.9539 28.2694C61.0398 26.184 61.6094 23.9165 61.6094 21.5331C61.6094 17.445 59.9005 13.5885 56.7675 10.6921C53.6524 7.79561 49.5047 6.19015 45.09 6.19015C43.3811 6.19015 41.6722 6.43841 40.0524 6.9184C38.6817 5.54465 37.1152 4.31986 35.3885 3.32679C36.2963 2.91301 37.2042 2.56543 38.1298 2.28406ZM34.1246 10.9072C35.9225 10.0962 37.6314 9.0866 39.1801 7.89492C40.7466 9.48383 42.0461 11.321 43.0073 13.3237L40.4084 21.1359H34.3916V17.9911H33.3592C33.2702 17.445 33.1812 16.8988 33.0387 16.3526C34.1246 15.6243 34.8366 14.4326 34.8366 13.092C34.8366 12.2975 34.5696 11.5362 34.1246 10.9072ZM46.0869 30.1728H51.8188L52.5309 32.9865H54.845C52.1749 34.8899 48.7571 36.1313 45.1435 36.1313C43.6126 36.1313 42.1173 35.9326 40.6576 35.5354C41.3696 34.7741 42.1529 33.8472 42.7403 32.9865H45.3393L46.0869 30.1728ZM47.4576 25.0585L49.0419 19.0339L50.555 25.0585H47.4576ZM54.4534 9.96382H44.1288L43.6126 11.5196C42.7937 10.0631 41.7969 8.68938 40.6398 7.46459C42.0995 7.06736 43.5948 6.86875 45.1257 6.86875C49.3445 6.86875 53.2785 8.39145 56.2513 11.1555C59.2241 13.9196 60.8618 17.6105 60.8618 21.5C60.8618 23.5027 60.4346 25.4226 59.6335 27.1605L54.4534 9.96382ZM34.3916 28.9811V21.8476H40.177L36.4387 33.0031H41.0136C40.4796 33.6982 39.8209 34.4761 39.1979 35.1216C37.7026 33.9796 36.1005 33.0031 34.3916 32.2252V28.9811ZM38.6639 7.38183C37.1152 8.55697 35.4241 9.55004 33.644 10.3445C32.8607 9.56659 31.7393 9.0866 30.4932 9.0866H30.1728C28.4995 6.17359 26.2565 3.50885 23.533 1.29099C29.4607 1.40685 34.801 3.70747 38.6639 7.38183ZM23.5508 2.25096C25.9005 4.27021 27.8764 6.63703 29.3895 9.21902C27.7874 9.61624 26.5592 10.841 26.2565 12.3637C25.3665 12.4796 24.4586 12.5293 23.5508 12.5458V2.25096V2.25096ZM23.5508 13.241C24.423 13.241 25.2953 13.1748 26.1675 13.1085C26.1675 15.3264 28.1079 17.1305 30.4932 17.1305C31.1518 17.1305 31.7749 16.9981 32.3445 16.7498C32.4335 17.1636 32.5047 17.5939 32.5759 18.0077H26.488V21.1524H23.533V13.241H23.5508ZM23.5508 21.8476H26.5058V28.9977V29.9742C25.5267 29.8418 24.5476 29.7756 23.5508 29.759V21.8476ZM23.5508 30.4542C24.5476 30.4542 25.5267 30.537 26.5058 30.6694V33.0031H29.8524C28.3037 35.8333 26.1141 38.5477 23.5508 40.749V30.4542ZM30.689 33.0031H30.9026H34.3916C35.9047 33.7313 37.3466 34.6085 38.6817 35.6347C34.8188 39.3091 29.4785 41.6097 23.5508 41.709C26.5058 39.276 28.9801 36.214 30.689 33.0031ZM7.58325 35.6347C8.86492 34.6582 10.3068 33.6982 11.7665 33.0031H14.223V32.0266C14.4901 31.9273 14.7571 31.8279 15.0419 31.7452C16.7508 35.4361 19.3497 38.8456 22.6607 41.7256C16.733 41.5766 11.4105 39.276 7.58325 35.6347ZM14.2052 31.2487V29.759C14.3654 30.2059 14.5435 30.6528 14.7215 31.0831L14.2052 31.2487ZM22.7853 40.749C19.7414 38.134 17.356 34.9727 15.7361 31.5135C17.9969 30.8514 20.3822 30.4873 22.7853 30.4542V40.749ZM22.7853 29.7425C20.2754 29.7756 17.801 30.1397 15.4513 30.8514C14.9351 29.6597 14.5257 28.4515 14.2052 27.2267V24.8433H21.0586V21.8476H22.7853V29.7425ZM22.7853 21.1524H21.0586V19.0008H14.2052V16.6174V15.9885H21.9131V13.2244C22.1979 13.241 22.4827 13.241 22.7853 13.241V21.1524ZM22.7853 12.5458C22.5005 12.5458 22.1979 12.5293 21.9131 12.5127V9.74865H16.6262C18.1749 6.96805 20.2576 4.41917 22.7853 2.25096V12.5458ZM22.7853 1.29099C19.8482 3.69092 17.4806 6.58737 15.7717 9.74865H11.3927C10.0398 9.0866 8.77592 8.29215 7.58325 7.38183C11.4461 3.69092 16.822 1.3903 22.7853 1.29099ZM7.06702 7.89492C7.95707 8.59007 8.90052 9.20246 9.87958 9.7652H5.51832V16.6174V21.1524H1.38848C1.49529 16.0547 3.61361 11.4038 7.06702 7.89492ZM5.51832 21.8476V33.0031H10.289C9.22094 33.5989 8.01047 34.3768 7.04921 35.1216C3.61361 31.6128 1.47749 26.9619 1.38848 21.8476H5.51832Z" fill="white"/>
</svg>
